<?xml version="1.0" encoding="UTF-8" standalone="no"?>
<!DOCTYPE svg PUBLIC "-//W3C//DTD SVG 1.0//EN" "http://www.w3.org/TR/2001/PR-SVG-20010719/DTD/svg10.dtd">
<svg width="92cm" height="52cm" viewBox="-246 -54 1824 1023" xmlns="http://www.w3.org/2000/svg" xmlns:xlink="http://www.w3.org/1999/xlink">
  <g>
    <rect style="fill: #ff0000" x="-244.873" y="89.4004" width="273.018" height="772.975"/>
    <rect style="fill: none; fill-opacity:0; stroke-width: 2; stroke: #000000" x="-244.873" y="89.4004" width="273.018" height="772.975"/>
    <text font-size="45.1556" style="fill: #000000;text-anchor:middle;font-family:sans-serif;font-style:normal;font-weight:700" x="-108.364" y="464.594">
      <tspan x="-108.364" y="464.594">Biostatica</tspan>
      <tspan x="-108.364" y="521.038"> Matlab</tspan>
    </text>
  </g>
  <g>
    <rect style="fill: #0000ff" x="126.328" y="7.49259" width="108.036" height="104.137"/>
    <rect style="fill: none; fill-opacity:0; stroke-width: 2; stroke: #000000" x="126.328" y="7.49259" width="108.036" height="104.137"/>
    <text font-size="16.9333" style="fill: #000000;text-anchor:middle;font-family:sans-serif;font-style:normal;font-weight:700" x="180.346" y="65.9275">
      <tspan x="180.346" y="65.9275">WEEK 1</tspan>
    </text>
  </g>
  <g>
    <rect style="fill: #00ff00" x="353.546" y="-52.0319" width="154.597" height="81.5416"/>
    <rect style="fill: none; fill-opacity:0; stroke-width: 2; stroke: #000000" x="353.546" y="-52.0319" width="154.597" height="81.5416"/>
    <text font-size="19.7553" style="fill: #000000;text-anchor:middle;font-family:sans-serif;font-style:normal;font-weight:normal" x="430.845" y="-3.85835">
      <tspan x="430.845" y="-3.85835">Practicum 1</tspan>
    </text>
  </g>
  <g>
    <rect style="fill: #ffa500" x="535.503" y="-45.1993" width="154.597" height="60.1621"/>
    <rect style="fill: none; fill-opacity:0; stroke-width: 2; stroke: #000000" x="535.503" y="-45.1993" width="154.597" height="60.1621"/>
    <text font-size="19.7553" style="fill: #000000;text-anchor:middle;font-family:sans-serif;font-style:normal;font-weight:normal" x="612.802" y="-7.71547">
      <tspan x="612.802" y="-7.71547">Reader 1_1</tspan>
    </text>
  </g>
  <g>
    <line style="fill: none; fill-opacity:0; stroke-width: 10; stroke: #000000" x1="28.2342" y1="233.573" x2="114.945" y2="79.7537"/>
    <polygon style="fill: #000000" points="120.838,69.3003 119.95,87.1668 114.945,79.7537 106.012,79.3097 "/>
    <polygon style="fill: none; fill-opacity:0; stroke-width: 10; stroke: #000000" points="120.838,69.3003 119.95,87.1668 114.945,79.7537 106.012,79.3097 "/>
  </g>
  <g>
    <line style="fill: none; fill-opacity:0; stroke-width: 2; stroke: #000000" x1="234.364" y1="59.5609" x2="345.176" y2="-6.28749"/>
    <polygon style="fill: #000000" points="351.624,-10.1188 345.582,-0.712009 345.176,-6.28749 340.473,-9.30873 "/>
    <polygon style="fill: none; fill-opacity:0; stroke-width: 2; stroke: #000000" points="351.624,-10.1188 345.582,-0.712009 345.176,-6.28749 340.473,-9.30873 "/>
  </g>
  <line style="fill: none; fill-opacity:0; stroke-width: 2; stroke: #000000" x1="508.143" y1="-11.2611" x2="534.499" y2="-12.2325"/>
  <g>
    <rect style="fill: #00ff00" x="352.798" y="63.6211" width="154.597" height="81.5416"/>
    <rect style="fill: none; fill-opacity:0; stroke-width: 2; stroke: #000000" x="352.798" y="63.6211" width="154.597" height="81.5416"/>
    <text font-size="19.7553" style="fill: #000000;text-anchor:middle;font-family:sans-serif;font-style:normal;font-weight:normal" x="430.096" y="111.795">
      <tspan x="430.096" y="111.795">Practicum 2</tspan>
    </text>
  </g>
  <g>
    <rect style="fill: #ffa500" x="533.754" y="71.4537" width="154.597" height="60.1621"/>
    <rect style="fill: none; fill-opacity:0; stroke-width: 2; stroke: #000000" x="533.754" y="71.4537" width="154.597" height="60.1621"/>
    <text font-size="19.7553" style="fill: #000000;text-anchor:middle;font-family:sans-serif;font-style:normal;font-weight:normal" x="611.053" y="108.938">
      <tspan x="611.053" y="108.938">Reader 1_2</tspan>
    </text>
  </g>
  <g>
    <line style="fill: none; fill-opacity:0; stroke-width: 2; stroke: #000000" x1="234.364" y1="59.5609" x2="343.692" y2="100.945"/>
    <polygon style="fill: #000000" points="350.706,103.6 339.584,104.736 343.692,100.945 343.124,95.3839 "/>
    <polygon style="fill: none; fill-opacity:0; stroke-width: 2; stroke: #000000" points="350.706,103.6 339.584,104.736 343.692,100.945 343.124,95.3839 "/>
  </g>
  <line style="fill: none; fill-opacity:0; stroke-width: 2; stroke: #000000" x1="507.395" y1="104.392" x2="532.778" y2="103.692"/>
  <g>
    <line style="fill: none; fill-opacity:0; stroke-width: 6; stroke: #000000" x1="688.351" y1="101.535" x2="803.063" y2="77.6121"/>
    <polygon style="fill: #000000" points="813.341,75.4685 801.065,85.1792 803.063,77.6121 798.207,71.4741 "/>
    <polygon style="fill: none; fill-opacity:0; stroke-width: 6; stroke: #000000" points="813.341,75.4685 801.065,85.1792 803.063,77.6121 798.207,71.4741 "/>
  </g>
  <g>
    <line style="fill: none; fill-opacity:0; stroke-width: 6; stroke: #000000" x1="690.1" y1="-15.1182" x2="813.203" y2="20.8249"/>
    <polygon style="fill: #000000" points="823.282,23.7677 807.881,26.5633 813.203,20.8249 811.805,13.1245 "/>
    <polygon style="fill: none; fill-opacity:0; stroke-width: 6; stroke: #000000" points="823.282,23.7677 807.881,26.5633 813.203,20.8249 811.805,13.1245 "/>
  </g>
  <g>
    <rect style="fill: #0000ff" x="126.328" y="221.654" width="108.036" height="104.137"/>
    <rect style="fill: none; fill-opacity:0; stroke-width: 2; stroke: #000000" x="126.328" y="221.654" width="108.036" height="104.137"/>
    <text font-size="16.9333" style="fill: #000000;text-anchor:middle;font-family:sans-serif;font-style:normal;font-weight:700" x="180.346" y="280.089">
      <tspan x="180.346" y="280.089">WEEK 2</tspan>
    </text>
  </g>
  <g>
    <rect style="fill: #00ff00" x="351.891" y="173.16" width="154.597" height="81.5416"/>
    <rect style="fill: none; fill-opacity:0; stroke-width: 2; stroke: #000000" x="351.891" y="173.16" width="154.597" height="81.5416"/>
    <text font-size="19.7553" style="fill: #000000;text-anchor:middle;font-family:sans-serif;font-style:normal;font-weight:normal" x="429.19" y="221.333">
      <tspan x="429.19" y="221.333">Practicum 3</tspan>
    </text>
  </g>
  <g>
    <rect style="fill: #ffa500" x="533.848" y="179.992" width="154.597" height="60.1621"/>
    <rect style="fill: none; fill-opacity:0; stroke-width: 2; stroke: #000000" x="533.848" y="179.992" width="154.597" height="60.1621"/>
    <text font-size="19.7553" style="fill: #000000;text-anchor:middle;font-family:sans-serif;font-style:normal;font-weight:normal" x="611.146" y="217.476">
      <tspan x="611.146" y="217.476">Reader 2_1</tspan>
    </text>
  </g>
  <g>
    <line style="fill: none; fill-opacity:0; stroke-width: 10; stroke: #000000" x1="28.2342" y1="358.221" x2="108.766" y2="288.851"/>
    <polygon style="fill: #000000" points="117.858,281.019 110.956,297.523 108.766,288.851 100.514,285.4 "/>
    <polygon style="fill: none; fill-opacity:0; stroke-width: 10; stroke: #000000" points="117.858,281.019 110.956,297.523 108.766,288.851 100.514,285.4 "/>
  </g>
  <g>
    <line style="fill: none; fill-opacity:0; stroke-width: 2; stroke: #000000" x1="234.364" y1="273.722" x2="343.213" y2="218.345"/>
    <polygon style="fill: #000000" points="349.898,214.945 343.252,223.935 343.213,218.345 338.718,215.023 "/>
    <polygon style="fill: none; fill-opacity:0; stroke-width: 2; stroke: #000000" points="349.898,214.945 343.252,223.935 343.213,218.345 338.718,215.023 "/>
  </g>
  <line style="fill: none; fill-opacity:0; stroke-width: 2; stroke: #000000" x1="506.488" y1="213.931" x2="532.844" y2="212.959"/>
  <g>
    <rect style="fill: #00ff00" x="351.142" y="288.813" width="154.597" height="81.5416"/>
    <rect style="fill: none; fill-opacity:0; stroke-width: 2; stroke: #000000" x="351.142" y="288.813" width="154.597" height="81.5416"/>
    <text font-size="19.7553" style="fill: #000000;text-anchor:middle;font-family:sans-serif;font-style:normal;font-weight:normal" x="428.441" y="336.987">
      <tspan x="428.441" y="336.987">Practicum 4</tspan>
    </text>
  </g>
  <g>
    <rect style="fill: #ffa500" x="532.099" y="296.646" width="154.597" height="60.1621"/>
    <rect style="fill: none; fill-opacity:0; stroke-width: 2; stroke: #000000" x="532.099" y="296.646" width="154.597" height="60.1621"/>
    <text font-size="19.7553" style="fill: #000000;text-anchor:middle;font-family:sans-serif;font-style:normal;font-weight:normal" x="609.398" y="334.129">
      <tspan x="609.398" y="334.129">Reader 2_2</tspan>
    </text>
  </g>
  <g>
    <line style="fill: none; fill-opacity:0; stroke-width: 2; stroke: #000000" x1="234.364" y1="273.722" x2="342.36" y2="325.382"/>
    <polygon style="fill: #000000" points="349.125,328.619 337.947,328.814 342.36,325.382 342.262,319.793 "/>
    <polygon style="fill: none; fill-opacity:0; stroke-width: 2; stroke: #000000" points="349.125,328.619 337.947,328.814 342.36,325.382 342.262,319.793 "/>
  </g>
  <line style="fill: none; fill-opacity:0; stroke-width: 2; stroke: #000000" x1="505.739" y1="329.584" x2="531.122" y2="328.884"/>
  <g>
    <line style="fill: none; fill-opacity:0; stroke-width: 6; stroke: #000000" x1="686.696" y1="326.727" x2="806.55" y2="298.454"/>
    <polygon style="fill: #000000" points="816.769,296.043 804.751,306.07 806.55,298.454 801.536,292.444 "/>
    <polygon style="fill: none; fill-opacity:0; stroke-width: 6; stroke: #000000" points="816.769,296.043 804.751,306.07 806.55,298.454 801.536,292.444 "/>
  </g>
  <g>
    <line style="fill: none; fill-opacity:0; stroke-width: 6; stroke: #000000" x1="688.445" y1="210.074" x2="809.697" y2="241.706"/>
    <polygon style="fill: #000000" points="819.857,244.357 804.543,247.596 809.697,241.706 808.077,234.049 "/>
    <polygon style="fill: none; fill-opacity:0; stroke-width: 6; stroke: #000000" points="819.857,244.357 804.543,247.596 809.697,241.706 808.077,234.049 "/>
  </g>
  <g>
    <rect style="fill: #0000ff" x="126.328" y="435.815" width="108.036" height="104.137"/>
    <rect style="fill: none; fill-opacity:0; stroke-width: 2; stroke: #000000" x="126.328" y="435.815" width="108.036" height="104.137"/>
    <text font-size="16.9333" style="fill: #000000;text-anchor:middle;font-family:sans-serif;font-style:normal;font-weight:700" x="180.346" y="494.25">
      <tspan x="180.346" y="494.25">WEEK 3</tspan>
    </text>
  </g>
  <g>
    <rect style="fill: #00ff00" x="352.453" y="402.028" width="154.597" height="81.5416"/>
    <rect style="fill: none; fill-opacity:0; stroke-width: 2; stroke: #000000" x="352.453" y="402.028" width="154.597" height="81.5416"/>
    <text font-size="19.7553" style="fill: #000000;text-anchor:middle;font-family:sans-serif;font-style:normal;font-weight:normal" x="429.752" y="450.202">
      <tspan x="429.752" y="450.202">Practicum 5</tspan>
    </text>
  </g>
  <g>
    <rect style="fill: #ffa500" x="534.41" y="408.861" width="154.597" height="60.1621"/>
    <rect style="fill: none; fill-opacity:0; stroke-width: 2; stroke: #000000" x="534.41" y="408.861" width="154.597" height="60.1621"/>
    <text font-size="19.7553" style="fill: #000000;text-anchor:middle;font-family:sans-serif;font-style:normal;font-weight:normal" x="611.708" y="446.345">
      <tspan x="611.708" y="446.345">Reader 3_1</tspan>
    </text>
  </g>
  <g>
    <line style="fill: none; fill-opacity:0; stroke-width: 2; stroke: #000000" x1="234.364" y1="487.884" x2="343.357" y2="446.272"/>
    <polygon style="fill: #000000" points="350.364,443.596 342.805,451.834 343.357,446.272 339.238,442.492 "/>
    <polygon style="fill: none; fill-opacity:0; stroke-width: 2; stroke: #000000" points="350.364,443.596 342.805,451.834 343.357,446.272 339.238,442.492 "/>
  </g>
  <line style="fill: none; fill-opacity:0; stroke-width: 2; stroke: #000000" x1="507.05" y1="442.799" x2="533.406" y2="441.828"/>
  <g>
    <rect style="fill: #00ff00" x="351.704" y="517.681" width="154.597" height="81.5416"/>
    <rect style="fill: none; fill-opacity:0; stroke-width: 2; stroke: #000000" x="351.704" y="517.681" width="154.597" height="81.5416"/>
    <text font-size="19.7553" style="fill: #000000;text-anchor:middle;font-family:sans-serif;font-style:normal;font-weight:normal" x="429.003" y="565.855">
      <tspan x="429.003" y="565.855">Practicum 6</tspan>
    </text>
  </g>
  <g>
    <rect style="fill: #ffa500" x="532.661" y="525.514" width="154.597" height="60.1621"/>
    <rect style="fill: none; fill-opacity:0; stroke-width: 2; stroke: #000000" x="532.661" y="525.514" width="154.597" height="60.1621"/>
    <text font-size="19.7553" style="fill: #000000;text-anchor:middle;font-family:sans-serif;font-style:normal;font-weight:normal" x="609.96" y="562.998">
      <tspan x="609.96" y="562.998">Reader 3_2</tspan>
    </text>
  </g>
  <g>
    <line style="fill: none; fill-opacity:0; stroke-width: 2; stroke: #000000" x1="234.364" y1="487.884" x2="343.361" y2="553.434"/>
    <polygon style="fill: #000000" points="349.788,557.299 338.642,556.431 343.361,553.434 343.795,547.861 "/>
    <polygon style="fill: none; fill-opacity:0; stroke-width: 2; stroke: #000000" points="349.788,557.299 338.642,556.431 343.361,553.434 343.795,547.861 "/>
  </g>
  <line style="fill: none; fill-opacity:0; stroke-width: 2; stroke: #000000" x1="506.301" y1="558.452" x2="531.684" y2="557.752"/>
  <g>
    <line style="fill: none; fill-opacity:0; stroke-width: 6; stroke: #000000" x1="687.258" y1="555.595" x2="803.81" y2="530.578"/>
    <polygon style="fill: #000000" points="814.076,528.375 801.857,538.157 803.81,530.578 798.919,524.469 "/>
    <polygon style="fill: none; fill-opacity:0; stroke-width: 6; stroke: #000000" points="814.076,528.375 801.857,538.157 803.81,530.578 798.919,524.469 "/>
  </g>
  <g>
    <line style="fill: none; fill-opacity:0; stroke-width: 6; stroke: #000000" x1="689.007" y1="438.942" x2="812.231" y2="473.875"/>
    <polygon style="fill: #000000" points="822.333,476.739 806.954,479.655 812.231,473.875 810.773,466.186 "/>
    <polygon style="fill: none; fill-opacity:0; stroke-width: 6; stroke: #000000" points="822.333,476.739 806.954,479.655 812.231,473.875 810.773,466.186 "/>
  </g>
  <g>
    <line style="fill: none; fill-opacity:0; stroke-width: 10; stroke: #000000" x1="29.1187" y1="481.6" x2="102.163" y2="484.635"/>
    <polygon style="fill: #000000" points="114.153,485.133 97.8343,492.462 102.163,484.635 98.4985,476.476 "/>
    <polygon style="fill: none; fill-opacity:0; stroke-width: 10; stroke: #000000" points="114.153,485.133 97.8343,492.462 102.163,484.635 98.4985,476.476 "/>
  </g>
  <g>
    <rect style="fill: #0000ff" x="126.328" y="649.977" width="108.036" height="104.137"/>
    <rect style="fill: none; fill-opacity:0; stroke-width: 2; stroke: #000000" x="126.328" y="649.977" width="108.036" height="104.137"/>
    <text font-size="16.9333" style="fill: #000000;text-anchor:middle;font-family:sans-serif;font-style:normal;font-weight:700" x="180.346" y="708.412">
      <tspan x="180.346" y="708.412">WEEK 4</tspan>
    </text>
  </g>
  <g>
    <rect style="fill: #00ff00" x="353.224" y="633.051" width="154.597" height="81.5416"/>
    <rect style="fill: none; fill-opacity:0; stroke-width: 2; stroke: #000000" x="353.224" y="633.051" width="154.597" height="81.5416"/>
    <text font-size="19.7553" style="fill: #000000;text-anchor:middle;font-family:sans-serif;font-style:normal;font-weight:normal" x="430.523" y="681.225">
      <tspan x="430.523" y="681.225">Practicum 7</tspan>
    </text>
  </g>
  <g>
    <rect style="fill: #ffa500" x="535.181" y="639.884" width="154.597" height="60.1621"/>
    <rect style="fill: none; fill-opacity:0; stroke-width: 2; stroke: #000000" x="535.181" y="639.884" width="154.597" height="60.1621"/>
    <text font-size="19.7553" style="fill: #000000;text-anchor:middle;font-family:sans-serif;font-style:normal;font-weight:normal" x="612.479" y="677.368">
      <tspan x="612.479" y="677.368">Reader 4_1</tspan>
    </text>
  </g>
  <g>
    <line style="fill: none; fill-opacity:0; stroke-width: 2; stroke: #000000" x1="234.364" y1="702.045" x2="343.752" y2="676.071"/>
    <polygon style="fill: #000000" points="351.049,674.338 342.474,681.513 343.752,676.071 340.164,671.784 "/>
    <polygon style="fill: none; fill-opacity:0; stroke-width: 2; stroke: #000000" points="351.049,674.338 342.474,681.513 343.752,676.071 340.164,671.784 "/>
  </g>
  <line style="fill: none; fill-opacity:0; stroke-width: 2; stroke: #000000" x1="507.821" y1="673.822" x2="534.177" y2="672.851"/>
  <g>
    <rect style="fill: #00ff00" x="352.476" y="748.704" width="154.597" height="81.5416"/>
    <rect style="fill: none; fill-opacity:0; stroke-width: 2; stroke: #000000" x="352.476" y="748.704" width="154.597" height="81.5416"/>
    <text font-size="19.7553" style="fill: #000000;text-anchor:middle;font-family:sans-serif;font-style:normal;font-weight:normal" x="429.774" y="796.878">
      <tspan x="429.774" y="796.878">Practicum 8</tspan>
    </text>
  </g>
  <g>
    <rect style="fill: #ffa500" x="533.432" y="756.537" width="154.597" height="60.1621"/>
    <rect style="fill: none; fill-opacity:0; stroke-width: 2; stroke: #000000" x="533.432" y="756.537" width="154.597" height="60.1621"/>
    <text font-size="19.7553" style="fill: #000000;text-anchor:middle;font-family:sans-serif;font-style:normal;font-weight:normal" x="610.731" y="794.021">
      <tspan x="610.731" y="794.021">Reader 4_2</tspan>
    </text>
  </g>
  <g>
    <line style="fill: none; fill-opacity:0; stroke-width: 2; stroke: #000000" x1="234.364" y1="702.045" x2="344.65" y2="783.682"/>
    <polygon style="fill: #000000" points="350.678,788.145 339.666,786.214 344.65,783.682 345.616,778.176 "/>
    <polygon style="fill: none; fill-opacity:0; stroke-width: 2; stroke: #000000" points="350.678,788.145 339.666,786.214 344.65,783.682 345.616,778.176 "/>
  </g>
  <line style="fill: none; fill-opacity:0; stroke-width: 2; stroke: #000000" x1="507.072" y1="789.475" x2="532.456" y2="788.775"/>
  <g>
    <polygon style="fill: #ff1db0" points="922.434,649.4 1060.74,728.517 922.434,807.634 784.126,728.517 "/>
    <polygon style="fill: none; fill-opacity:0; stroke-width: 2; stroke: #000000" points="922.434,649.4 1060.74,728.517 922.434,807.634 784.126,728.517 "/>
    <text font-size="19.7553" style="fill: #000000;text-anchor:middle;font-family:sans-serif;font-style:normal;font-weight:normal" x="922.434" y="735.92">
      <tspan x="922.434" y="735.92">Week 4 eindopdracht</tspan>
    </text>
  </g>
  <g>
    <line style="fill: none; fill-opacity:0; stroke-width: 6; stroke: #000000" x1="688.029" y1="786.618" x2="808.029" y2="756.874"/>
    <polygon style="fill: #000000" points="818.221,754.348 806.316,764.511 808.029,756.874 802.948,750.922 "/>
    <polygon style="fill: none; fill-opacity:0; stroke-width: 6; stroke: #000000" points="818.221,754.348 806.316,764.511 808.029,756.874 802.948,750.922 "/>
  </g>
  <g>
    <line style="fill: none; fill-opacity:0; stroke-width: 6; stroke: #000000" x1="689.778" y1="669.965" x2="808.489" y2="699.841"/>
    <polygon style="fill: #000000" points="818.671,702.403 803.386,705.775 808.489,699.841 806.803,692.198 "/>
    <polygon style="fill: none; fill-opacity:0; stroke-width: 6; stroke: #000000" points="818.671,702.403 803.386,705.775 808.489,699.841 806.803,692.198 "/>
  </g>
  <g>
    <line style="fill: none; fill-opacity:0; stroke-width: 10; stroke: #000000" x1="29.1187" y1="583.583" x2="107.075" y2="644.649"/>
    <polygon style="fill: #000000" points="116.522,652.049 98.9929,648.48 107.075,644.649 108.859,635.885 "/>
    <polygon style="fill: none; fill-opacity:0; stroke-width: 10; stroke: #000000" points="116.522,652.049 98.9929,648.48 107.075,644.649 108.859,635.885 "/>
  </g>
  <g>
    <rect style="fill: #0000ff" x="126.328" y="864.138" width="108.036" height="104.137"/>
    <rect style="fill: none; fill-opacity:0; stroke-width: 2; stroke: #000000" x="126.328" y="864.138" width="108.036" height="104.137"/>
    <text font-size="16.9333" style="fill: #000000;text-anchor:middle;font-family:sans-serif;font-style:normal;font-weight:700" x="180.346" y="922.573">
      <tspan x="180.346" y="922.573">WEEK 5</tspan>
    </text>
  </g>
  <g>
    <line style="fill: none; fill-opacity:0; stroke-width: 10; stroke: #000000" x1="29.1187" y1="685.566" x2="132.842" y2="843.757"/>
    <polygon style="fill: #000000" points="139.422,853.792 123.959,844.799 132.842,843.757 137.339,836.026 "/>
    <polygon style="fill: none; fill-opacity:0; stroke-width: 10; stroke: #000000" points="139.422,853.792 123.959,844.799 132.842,843.757 137.339,836.026 "/>
  </g>
  <g>
    <polygon style="fill: #e20045" points="1367.52,251.4 1576.27,344.319 1367.52,437.238 1158.77,344.319 "/>
    <polygon style="fill: none; fill-opacity:0; stroke-width: 2; stroke: #000000" points="1367.52,251.4 1576.27,344.319 1367.52,437.238 1158.77,344.319 "/>
    <text font-size="22.5774" style="fill: #000000;text-anchor:middle;font-family:sans-serif;font-style:normal;font-weight:normal" x="1367.52" y="352.808">
      <tspan x="1367.52" y="352.808">TENTAMEN</tspan>
    </text>
  </g>
  <g>
    <polygon style="fill: #ff1db0" points="922.434,426 1060.74,505.117 922.434,584.234 784.126,505.117 "/>
    <polygon style="fill: none; fill-opacity:0; stroke-width: 2; stroke: #000000" points="922.434,426 1060.74,505.117 922.434,584.234 784.126,505.117 "/>
    <text font-size="19.7553" style="fill: #000000;text-anchor:middle;font-family:sans-serif;font-style:normal;font-weight:normal" x="922.434" y="512.52">
      <tspan x="922.434" y="512.52">Week 3 eindopdracht</tspan>
    </text>
  </g>
  <g>
    <polygon style="fill: #ff1db0" points="922.434,192 1060.74,271.117 922.434,350.235 784.126,271.117 "/>
    <polygon style="fill: none; fill-opacity:0; stroke-width: 2; stroke: #000000" points="922.434,192 1060.74,271.117 922.434,350.235 784.126,271.117 "/>
    <text font-size="19.7553" style="fill: #000000;text-anchor:middle;font-family:sans-serif;font-style:normal;font-weight:normal" x="922.434" y="278.52">
      <tspan x="922.434" y="278.52">Week 2 eindopdracht</tspan>
    </text>
  </g>
  <g>
    <polygon style="fill: #ff1db0" points="922.434,-26.3995 1060.74,52.7176 922.434,131.835 784.126,52.7176 "/>
    <polygon style="fill: none; fill-opacity:0; stroke-width: 2; stroke: #000000" points="922.434,-26.3995 1060.74,52.7176 922.434,131.835 784.126,52.7176 "/>
    <text font-size="19.7553" style="fill: #000000;text-anchor:middle;font-family:sans-serif;font-style:normal;font-weight:normal" x="922.434" y="60.1204">
      <tspan x="922.434" y="60.1204">Week 1 eindopdracht</tspan>
    </text>
  </g>
  <g>
    <path style="fill: none; fill-opacity:0; stroke-width: 10; stroke: #000000" d="M 235.369 916.207 C 624.863,916.207 1315.59,967.89 1358.06,457.91"/>
    <polygon style="fill: #000000" points="1359.06,445.951 1365.7,462.56 1358.06,457.91 1349.76,461.232 "/>
    <polygon style="fill: none; fill-opacity:0; stroke-width: 10; stroke: #000000" points="1359.06,445.951 1365.7,462.56 1358.06,457.91 1349.76,461.232 "/>
  </g>
  <g>
    <line style="fill: none; fill-opacity:0; stroke-width: 6; stroke: #000000" x1="987.72" y1="95.4905" x2="1267.76" y2="278.963"/>
    <polygon style="fill: #000000" points="1276.55,284.717 1261,282.9 1267.76,278.963 1268.67,271.19 "/>
    <polygon style="fill: none; fill-opacity:0; stroke-width: 6; stroke: #000000" points="1276.55,284.717 1261,282.9 1267.76,278.963 1268.67,271.19 "/>
  </g>
  <g>
    <line style="fill: none; fill-opacity:0; stroke-width: 6; stroke: #000000" x1="1031.22" y1="289.009" x2="1196.56" y2="316.203"/>
    <polygon style="fill: #000000" points="1206.92,317.907 1191.97,322.542 1196.56,316.203 1194.25,308.727 "/>
    <polygon style="fill: none; fill-opacity:0; stroke-width: 6; stroke: #000000" points="1206.92,317.907 1191.97,322.542 1196.56,316.203 1194.25,308.727 "/>
  </g>
  <g>
    <line style="fill: none; fill-opacity:0; stroke-width: 6; stroke: #000000" x1="1008.17" y1="474.143" x2="1235.72" y2="391.936"/>
    <polygon style="fill: #000000" points="1245.59,388.368 1234.8,399.709 1235.72,391.936 1230.05,386.542 "/>
    <polygon style="fill: none; fill-opacity:0; stroke-width: 6; stroke: #000000" points="1245.59,388.368 1234.8,399.709 1235.72,391.936 1230.05,386.542 "/>
  </g>
  <g>
    <line style="fill: none; fill-opacity:0; stroke-width: 6; stroke: #000000" x1="978.246" y1="680.34" x2="1282.71" y2="417.529"/>
    <polygon style="fill: #000000" points="1290.66,410.668 1284.63,425.115 1282.71,417.529 1275.48,414.517 "/>
    <polygon style="fill: none; fill-opacity:0; stroke-width: 6; stroke: #000000" points="1290.66,410.668 1284.63,425.115 1282.71,417.529 1275.48,414.517 "/>
  </g>
</svg>
