<?xml version="1.0" encoding="UTF-8" standalone="no"?>
<!DOCTYPE svg PUBLIC "-//W3C//DTD SVG 1.0//EN" "http://www.w3.org/TR/2001/PR-SVG-20010719/DTD/svg10.dtd">
<svg width="92cm" height="52cm" viewBox="-248 -54 1825 1023" xmlns="http://www.w3.org/2000/svg" xmlns:xlink="http://www.w3.org/1999/xlink">
  <g>
    <rect style="fill: #ff0000" x="-246.44" y="89.4004" width="276.15" height="772.975"/>
    <rect style="fill: none; fill-opacity:0; stroke-width: 2; stroke: #000000" x="-246.44" y="89.4004" width="276.15" height="772.975"/>
    <text font-size="45.1556" style="fill: #000000;text-anchor:middle;font-family:sans-serif;font-style:normal;font-weight:700" x="-108.365" y="461.394">
      <tspan x="-108.365" y="461.394">Biostatica</tspan>
      <tspan x="-108.365" y="517.838"> Matlab</tspan>
    </text>
  </g>
  <g>
    <rect style="fill: #0000ff" x="126.328" y="7.49258" width="108.036" height="104.137"/>
    <rect style="fill: none; fill-opacity:0; stroke-width: 2; stroke: #000000" x="126.328" y="7.49258" width="108.036" height="104.137"/>
    <text font-size="16.9333" style="fill: #000000;text-anchor:middle;font-family:sans-serif;font-style:normal;font-weight:700" x="180.346" y="64.7275">
      <tspan x="180.346" y="64.7275">WEEK 1</tspan>
    </text>
  </g>
  <g>
    <rect style="fill: #00ff00" x="353.546" y="-52.032" width="154.597" height="81.5416"/>
    <rect style="fill: none; fill-opacity:0; stroke-width: 2; stroke: #000000" x="353.546" y="-52.032" width="154.597" height="81.5416"/>
    <text font-size="19.7556" style="fill: #000000;text-anchor:middle;font-family:sans-serif;font-style:normal;font-weight:normal" x="430.844" y="-5.25841">
      <tspan x="430.844" y="-5.25841">Practicum 1</tspan>
    </text>
  </g>
  <g>
    <rect style="fill: #ffa500" x="552.475" y="-45.1994" width="154.597" height="60.1621"/>
    <rect style="fill: none; fill-opacity:0; stroke-width: 2; stroke: #000000" x="552.475" y="-45.1994" width="154.597" height="60.1621"/>
    <text font-size="19.7556" style="fill: #000000;text-anchor:middle;font-family:sans-serif;font-style:normal;font-weight:normal" x="629.773" y="-9.11555">
      <tspan x="629.773" y="-9.11555">Reader 1_1</tspan>
    </text>
  </g>
  <g>
    <line style="fill: none; fill-opacity:0; stroke-width: 10; stroke: #000000" x1="30.712" y1="229.177" x2="114.945" y2="79.7536"/>
    <polygon style="fill: #000000" points="120.838,69.3002 119.95,87.1667 114.945,79.7536 106.012,79.3096 "/>
    <polygon style="fill: none; fill-opacity:0; stroke-width: 10; stroke: #000000" points="120.838,69.3002 119.95,87.1667 114.945,79.7536 106.012,79.3096 "/>
  </g>
  <g>
    <line style="fill: none; fill-opacity:0; stroke-width: 2; stroke: #000000" x1="234.364" y1="59.5608" x2="345.176" y2="-6.28749"/>
    <polygon style="fill: #000000" points="351.624,-10.1188 345.581,-0.712013 345.176,-6.28749 340.473,-9.30874 "/>
    <polygon style="fill: none; fill-opacity:0; stroke-width: 2; stroke: #000000" points="351.624,-10.1188 345.581,-0.712013 345.176,-6.28749 340.473,-9.30874 "/>
  </g>
  <g>
    <line style="fill: none; fill-opacity:0; stroke-width: 4; stroke: #000000" x1="517.084" y1="-11.5446" x2="542.543" y2="-12.352"/>
    <polyline style="fill: none; fill-opacity:0; stroke-width: 4; stroke: #000000" points="522.45,-16.7173 512.614,-11.4029 522.767,-6.72235 "/>
    <polyline style="fill: none; fill-opacity:0; stroke-width: 4; stroke: #000000" points="537.177,-7.17932 547.013,-12.4938 536.86,-17.1743 "/>
  </g>
  <g>
    <rect style="fill: #00ff00" x="352.798" y="63.621" width="154.597" height="81.5416"/>
    <rect style="fill: none; fill-opacity:0; stroke-width: 2; stroke: #000000" x="352.798" y="63.621" width="154.597" height="81.5416"/>
    <text font-size="19.7556" style="fill: #000000;text-anchor:middle;font-family:sans-serif;font-style:normal;font-weight:normal" x="430.096" y="110.395">
      <tspan x="430.096" y="110.395">Practicum 2</tspan>
    </text>
  </g>
  <g>
    <rect style="fill: #ffa500" x="550.725" y="71.4538" width="154.597" height="60.1621"/>
    <rect style="fill: none; fill-opacity:0; stroke-width: 2; stroke: #000000" x="550.725" y="71.4538" width="154.597" height="60.1621"/>
    <text font-size="19.7556" style="fill: #000000;text-anchor:middle;font-family:sans-serif;font-style:normal;font-weight:normal" x="628.023" y="107.538">
      <tspan x="628.023" y="107.538">Reader 1_2</tspan>
    </text>
  </g>
  <g>
    <line style="fill: none; fill-opacity:0; stroke-width: 2; stroke: #000000" x1="234.364" y1="59.5608" x2="343.692" y2="100.945"/>
    <polygon style="fill: #000000" points="350.707,103.6 339.584,104.736 343.692,100.945 343.124,95.384 "/>
    <polygon style="fill: none; fill-opacity:0; stroke-width: 2; stroke: #000000" points="350.707,103.6 339.584,104.736 343.692,100.945 343.124,95.384 "/>
  </g>
  <g>
    <line style="fill: none; fill-opacity:0; stroke-width: 4; stroke: #000000" x1="516.336" y1="104.18" x2="540.787" y2="103.601"/>
    <polyline style="fill: none; fill-opacity:0; stroke-width: 4; stroke: #000000" points="521.744,99.0507 511.865,104.286 521.98,109.048 "/>
    <polyline style="fill: none; fill-opacity:0; stroke-width: 4; stroke: #000000" points="535.379,108.731 545.258,103.495 535.143,98.7334 "/>
  </g>
  <g>
    <line style="fill: none; fill-opacity:0; stroke-width: 6; stroke: #000000" x1="705.321" y1="101.535" x2="797.459" y2="80.8178"/>
    <polygon style="fill: #000000" points="807.704,78.5144 795.58,88.4151 797.459,80.8178 792.509,74.7561 "/>
    <polygon style="fill: none; fill-opacity:0; stroke-width: 6; stroke: #000000" points="807.704,78.5144 795.58,88.4151 797.459,80.8178 792.509,74.7561 "/>
  </g>
  <g>
    <line style="fill: none; fill-opacity:0; stroke-width: 6; stroke: #000000" x1="707.071" y1="-15.1183" x2="808.789" y2="16.9213"/>
    <polygon style="fill: #000000" points="818.804,20.0758 803.348,22.5464 808.789,16.9213 807.554,9.19315 "/>
    <polygon style="fill: none; fill-opacity:0; stroke-width: 6; stroke: #000000" points="818.804,20.0758 803.348,22.5464 808.789,16.9213 807.554,9.19315 "/>
  </g>
  <g>
    <rect style="fill: #0000ff" x="126.328" y="221.654" width="108.036" height="104.137"/>
    <rect style="fill: none; fill-opacity:0; stroke-width: 2; stroke: #000000" x="126.328" y="221.654" width="108.036" height="104.137"/>
    <text font-size="16.9333" style="fill: #000000;text-anchor:middle;font-family:sans-serif;font-style:normal;font-weight:700" x="180.346" y="278.889">
      <tspan x="180.346" y="278.889">WEEK 2</tspan>
    </text>
  </g>
  <g>
    <rect style="fill: #00ff00" x="351.892" y="173.16" width="154.597" height="81.5416"/>
    <rect style="fill: none; fill-opacity:0; stroke-width: 2; stroke: #000000" x="351.892" y="173.16" width="154.597" height="81.5416"/>
    <text font-size="19.7556" style="fill: #000000;text-anchor:middle;font-family:sans-serif;font-style:normal;font-weight:normal" x="429.19" y="219.933">
      <tspan x="429.19" y="219.933">Practicum 3</tspan>
    </text>
  </g>
  <g>
    <rect style="fill: #ffa500" x="550.819" y="179.992" width="154.597" height="60.1621"/>
    <rect style="fill: none; fill-opacity:0; stroke-width: 2; stroke: #000000" x="550.819" y="179.992" width="154.597" height="60.1621"/>
    <text font-size="19.7556" style="fill: #000000;text-anchor:middle;font-family:sans-serif;font-style:normal;font-weight:normal" x="628.117" y="216.076">
      <tspan x="628.117" y="216.076">Reader 2_1</tspan>
    </text>
  </g>
  <g>
    <line style="fill: none; fill-opacity:0; stroke-width: 10; stroke: #000000" x1="30.712" y1="356.086" x2="108.766" y2="288.851"/>
    <polygon style="fill: #000000" points="117.858,281.019 110.956,297.523 108.766,288.851 100.514,285.4 "/>
    <polygon style="fill: none; fill-opacity:0; stroke-width: 10; stroke: #000000" points="117.858,281.019 110.956,297.523 108.766,288.851 100.514,285.4 "/>
  </g>
  <g>
    <line style="fill: none; fill-opacity:0; stroke-width: 2; stroke: #000000" x1="234.364" y1="273.722" x2="343.214" y2="218.345"/>
    <polygon style="fill: #000000" points="349.899,214.944 343.253,223.935 343.214,218.345 338.719,215.022 "/>
    <polygon style="fill: none; fill-opacity:0; stroke-width: 2; stroke: #000000" points="349.899,214.944 343.253,223.935 343.214,218.345 338.719,215.022 "/>
  </g>
  <g>
    <line style="fill: none; fill-opacity:0; stroke-width: 4; stroke: #000000" x1="515.428" y1="213.647" x2="540.887" y2="212.839"/>
    <polyline style="fill: none; fill-opacity:0; stroke-width: 4; stroke: #000000" points="520.794,208.474 510.958,213.788 521.111,218.469 "/>
    <polyline style="fill: none; fill-opacity:0; stroke-width: 4; stroke: #000000" points="535.521,218.012 545.357,212.698 535.204,208.017 "/>
  </g>
  <g>
    <rect style="fill: #00ff00" x="351.142" y="288.812" width="154.597" height="81.5416"/>
    <rect style="fill: none; fill-opacity:0; stroke-width: 2; stroke: #000000" x="351.142" y="288.812" width="154.597" height="81.5416"/>
    <text font-size="19.7556" style="fill: #000000;text-anchor:middle;font-family:sans-serif;font-style:normal;font-weight:normal" x="428.44" y="335.586">
      <tspan x="428.44" y="335.586">Practicum 4</tspan>
    </text>
  </g>
  <g>
    <rect style="fill: #ffa500" x="549.071" y="296.646" width="154.597" height="60.1621"/>
    <rect style="fill: none; fill-opacity:0; stroke-width: 2; stroke: #000000" x="549.071" y="296.646" width="154.597" height="60.1621"/>
    <text font-size="19.7556" style="fill: #000000;text-anchor:middle;font-family:sans-serif;font-style:normal;font-weight:normal" x="626.369" y="332.73">
      <tspan x="626.369" y="332.73">Reader 2_2</tspan>
    </text>
  </g>
  <g>
    <line style="fill: none; fill-opacity:0; stroke-width: 2; stroke: #000000" x1="234.364" y1="273.722" x2="342.359" y2="325.383"/>
    <polygon style="fill: #000000" points="349.125,328.619 337.946,328.814 342.359,325.383 342.261,319.793 "/>
    <polygon style="fill: none; fill-opacity:0; stroke-width: 2; stroke: #000000" points="349.125,328.619 337.946,328.814 342.359,325.383 342.261,319.793 "/>
  </g>
  <g>
    <line style="fill: none; fill-opacity:0; stroke-width: 4; stroke: #000000" x1="514.682" y1="329.372" x2="539.133" y2="328.793"/>
    <polyline style="fill: none; fill-opacity:0; stroke-width: 4; stroke: #000000" points="520.09,324.243 510.211,329.478 520.326,334.24 "/>
    <polyline style="fill: none; fill-opacity:0; stroke-width: 4; stroke: #000000" points="533.725,333.923 543.604,328.687 533.489,323.925 "/>
  </g>
  <g>
    <line style="fill: none; fill-opacity:0; stroke-width: 6; stroke: #000000" x1="703.667" y1="326.727" x2="801.38" y2="301.889"/>
    <polygon style="fill: #000000" points="811.556,299.302 799.712,309.535 801.38,301.889 796.263,295.967 "/>
    <polygon style="fill: none; fill-opacity:0; stroke-width: 6; stroke: #000000" points="811.556,299.302 799.712,309.535 801.38,301.889 796.263,295.967 "/>
  </g>
  <g>
    <line style="fill: none; fill-opacity:0; stroke-width: 6; stroke: #000000" x1="705.415" y1="210.073" x2="804.797" y2="238.028"/>
    <polygon style="fill: #000000" points="814.904,240.871 799.532,243.819 804.797,238.028 803.323,230.342 "/>
    <polygon style="fill: none; fill-opacity:0; stroke-width: 6; stroke: #000000" points="814.904,240.871 799.532,243.819 804.797,238.028 803.323,230.342 "/>
  </g>
  <g>
    <rect style="fill: #0000ff" x="126.328" y="435.816" width="108.036" height="104.137"/>
    <rect style="fill: none; fill-opacity:0; stroke-width: 2; stroke: #000000" x="126.328" y="435.816" width="108.036" height="104.137"/>
    <text font-size="16.9333" style="fill: #000000;text-anchor:middle;font-family:sans-serif;font-style:normal;font-weight:700" x="180.346" y="493.051">
      <tspan x="180.346" y="493.051">WEEK 3</tspan>
    </text>
  </g>
  <g>
    <rect style="fill: #00ff00" x="352.454" y="402.028" width="154.597" height="81.5416"/>
    <rect style="fill: none; fill-opacity:0; stroke-width: 2; stroke: #000000" x="352.454" y="402.028" width="154.597" height="81.5416"/>
    <text font-size="19.7556" style="fill: #000000;text-anchor:middle;font-family:sans-serif;font-style:normal;font-weight:normal" x="429.752" y="448.802">
      <tspan x="429.752" y="448.802">Practicum 5</tspan>
    </text>
  </g>
  <g>
    <rect style="fill: #ffa500" x="551.381" y="408.86" width="154.597" height="60.1621"/>
    <rect style="fill: none; fill-opacity:0; stroke-width: 2; stroke: #000000" x="551.381" y="408.86" width="154.597" height="60.1621"/>
    <text font-size="19.7556" style="fill: #000000;text-anchor:middle;font-family:sans-serif;font-style:normal;font-weight:normal" x="628.679" y="444.944">
      <tspan x="628.679" y="444.944">Reader 3_1</tspan>
    </text>
  </g>
  <g>
    <line style="fill: none; fill-opacity:0; stroke-width: 2; stroke: #000000" x1="234.364" y1="487.884" x2="343.358" y2="446.271"/>
    <polygon style="fill: #000000" points="350.365,443.596 342.806,451.834 343.358,446.271 339.239,442.491 "/>
    <polygon style="fill: none; fill-opacity:0; stroke-width: 2; stroke: #000000" points="350.365,443.596 342.806,451.834 343.358,446.271 339.239,442.491 "/>
  </g>
  <g>
    <line style="fill: none; fill-opacity:0; stroke-width: 4; stroke: #000000" x1="515.99" y1="442.515" x2="541.449" y2="441.707"/>
    <polyline style="fill: none; fill-opacity:0; stroke-width: 4; stroke: #000000" points="521.356,437.342 511.52,442.656 521.673,447.337 "/>
    <polyline style="fill: none; fill-opacity:0; stroke-width: 4; stroke: #000000" points="536.083,446.88 545.919,441.565 535.766,436.885 "/>
  </g>
  <g>
    <rect style="fill: #00ff00" x="351.704" y="517.682" width="154.597" height="81.5416"/>
    <rect style="fill: none; fill-opacity:0; stroke-width: 2; stroke: #000000" x="351.704" y="517.682" width="154.597" height="81.5416"/>
    <text font-size="19.7556" style="fill: #000000;text-anchor:middle;font-family:sans-serif;font-style:normal;font-weight:normal" x="429.002" y="564.456">
      <tspan x="429.002" y="564.456">Practicum 6</tspan>
    </text>
  </g>
  <g>
    <rect style="fill: #ffa500" x="549.633" y="525.514" width="154.597" height="60.1621"/>
    <rect style="fill: none; fill-opacity:0; stroke-width: 2; stroke: #000000" x="549.633" y="525.514" width="154.597" height="60.1621"/>
    <text font-size="19.7556" style="fill: #000000;text-anchor:middle;font-family:sans-serif;font-style:normal;font-weight:normal" x="626.931" y="561.598">
      <tspan x="626.931" y="561.598">Reader 3_2</tspan>
    </text>
  </g>
  <g>
    <line style="fill: none; fill-opacity:0; stroke-width: 2; stroke: #000000" x1="234.364" y1="487.884" x2="343.361" y2="553.434"/>
    <polygon style="fill: #000000" points="349.788,557.3 338.641,556.431 343.361,553.434 343.795,547.861 "/>
    <polygon style="fill: none; fill-opacity:0; stroke-width: 2; stroke: #000000" points="349.788,557.3 338.641,556.431 343.361,553.434 343.795,547.861 "/>
  </g>
  <g>
    <line style="fill: none; fill-opacity:0; stroke-width: 4; stroke: #000000" x1="515.244" y1="558.24" x2="539.695" y2="557.661"/>
    <polyline style="fill: none; fill-opacity:0; stroke-width: 4; stroke: #000000" points="520.652,553.111 510.773,558.346 520.888,563.108 "/>
    <polyline style="fill: none; fill-opacity:0; stroke-width: 4; stroke: #000000" points="534.287,562.791 544.166,557.555 534.051,552.793 "/>
  </g>
  <g>
    <line style="fill: none; fill-opacity:0; stroke-width: 6; stroke: #000000" x1="704.229" y1="555.595" x2="798.311" y2="533.831"/>
    <polygon style="fill: #000000" points="808.541,531.464 796.478,541.44 798.311,533.831 793.323,527.8 "/>
    <polygon style="fill: none; fill-opacity:0; stroke-width: 6; stroke: #000000" points="808.541,531.464 796.478,541.44 798.311,533.831 793.323,527.8 "/>
  </g>
  <g>
    <line style="fill: none; fill-opacity:0; stroke-width: 6; stroke: #000000" x1="705.977" y1="438.941" x2="807.724" y2="470.047"/>
    <polygon style="fill: #000000" points="817.765,473.117 802.33,475.718 807.724,470.047 806.423,462.33 "/>
    <polygon style="fill: none; fill-opacity:0; stroke-width: 6; stroke: #000000" points="817.765,473.117 802.33,475.718 807.724,470.047 806.423,462.33 "/>
  </g>
  <g>
    <line style="fill: none; fill-opacity:0; stroke-width: 10; stroke: #000000" x1="30.713" y1="481.667" x2="102.163" y2="484.636"/>
    <polygon style="fill: #000000" points="114.152,485.134 97.8341,492.463 102.163,484.636 98.4983,476.477 "/>
    <polygon style="fill: none; fill-opacity:0; stroke-width: 10; stroke: #000000" points="114.152,485.134 97.8341,492.463 102.163,484.636 98.4983,476.477 "/>
  </g>
  <g>
    <rect style="fill: #0000ff" x="126.328" y="649.976" width="108.036" height="104.137"/>
    <rect style="fill: none; fill-opacity:0; stroke-width: 2; stroke: #000000" x="126.328" y="649.976" width="108.036" height="104.137"/>
    <text font-size="16.9333" style="fill: #000000;text-anchor:middle;font-family:sans-serif;font-style:normal;font-weight:700" x="180.346" y="707.211">
      <tspan x="180.346" y="707.211">WEEK 4</tspan>
    </text>
  </g>
  <g>
    <rect style="fill: #00ff00" x="353.224" y="633.052" width="154.597" height="81.5416"/>
    <rect style="fill: none; fill-opacity:0; stroke-width: 2; stroke: #000000" x="353.224" y="633.052" width="154.597" height="81.5416"/>
    <text font-size="19.7556" style="fill: #000000;text-anchor:middle;font-family:sans-serif;font-style:normal;font-weight:normal" x="430.522" y="679.826">
      <tspan x="430.522" y="679.826">Practicum 7</tspan>
    </text>
  </g>
  <g>
    <rect style="fill: #ffa500" x="552.153" y="639.884" width="154.597" height="60.1621"/>
    <rect style="fill: none; fill-opacity:0; stroke-width: 2; stroke: #000000" x="552.153" y="639.884" width="154.597" height="60.1621"/>
    <text font-size="19.7556" style="fill: #000000;text-anchor:middle;font-family:sans-serif;font-style:normal;font-weight:normal" x="629.451" y="675.968">
      <tspan x="629.451" y="675.968">Reader 4_1</tspan>
    </text>
  </g>
  <g>
    <line style="fill: none; fill-opacity:0; stroke-width: 2; stroke: #000000" x1="234.364" y1="702.046" x2="343.751" y2="676.071"/>
    <polygon style="fill: #000000" points="351.048,674.339 342.474,681.514 343.751,676.071 340.164,671.784 "/>
    <polygon style="fill: none; fill-opacity:0; stroke-width: 2; stroke: #000000" points="351.048,674.339 342.474,681.514 343.751,676.071 340.164,671.784 "/>
  </g>
  <g>
    <line style="fill: none; fill-opacity:0; stroke-width: 4; stroke: #000000" x1="516.762" y1="673.539" x2="542.221" y2="672.731"/>
    <polyline style="fill: none; fill-opacity:0; stroke-width: 4; stroke: #000000" points="522.128,668.366 512.292,673.68 522.445,678.361 "/>
    <polyline style="fill: none; fill-opacity:0; stroke-width: 4; stroke: #000000" points="536.855,677.904 546.691,672.589 536.538,667.909 "/>
  </g>
  <g>
    <rect style="fill: #00ff00" x="352.476" y="748.704" width="154.597" height="81.5416"/>
    <rect style="fill: none; fill-opacity:0; stroke-width: 2; stroke: #000000" x="352.476" y="748.704" width="154.597" height="81.5416"/>
    <text font-size="19.7556" style="fill: #000000;text-anchor:middle;font-family:sans-serif;font-style:normal;font-weight:normal" x="429.774" y="795.478">
      <tspan x="429.774" y="795.478">Practicum 8</tspan>
    </text>
  </g>
  <g>
    <rect style="fill: #ffa500" x="550.403" y="756.536" width="154.597" height="60.1621"/>
    <rect style="fill: none; fill-opacity:0; stroke-width: 2; stroke: #000000" x="550.403" y="756.536" width="154.597" height="60.1621"/>
    <text font-size="19.7556" style="fill: #000000;text-anchor:middle;font-family:sans-serif;font-style:normal;font-weight:normal" x="627.701" y="792.62">
      <tspan x="627.701" y="792.62">Reader 4_2</tspan>
    </text>
  </g>
  <g>
    <line style="fill: none; fill-opacity:0; stroke-width: 2; stroke: #000000" x1="234.364" y1="702.046" x2="344.651" y2="783.681"/>
    <polygon style="fill: #000000" points="350.679,788.144 339.666,786.213 344.651,783.681 345.616,778.175 "/>
    <polygon style="fill: none; fill-opacity:0; stroke-width: 2; stroke: #000000" points="350.679,788.144 339.666,786.213 344.651,783.681 345.616,778.175 "/>
  </g>
  <g>
    <line style="fill: none; fill-opacity:0; stroke-width: 4; stroke: #000000" x1="516.014" y1="789.262" x2="540.465" y2="788.683"/>
    <polyline style="fill: none; fill-opacity:0; stroke-width: 4; stroke: #000000" points="521.422,784.133 511.543,789.368 521.658,794.13 "/>
    <polyline style="fill: none; fill-opacity:0; stroke-width: 4; stroke: #000000" points="535.057,793.813 544.936,788.577 534.821,783.815 "/>
  </g>
  <g>
    <polygon style="fill: #ff1db0" points="922.433,643.275 1071.45,728.517 922.433,813.759 773.418,728.517 "/>
    <polygon style="fill: none; fill-opacity:0; stroke-width: 2; stroke: #000000" points="922.433,643.275 1071.45,728.517 922.433,813.759 773.418,728.517 "/>
    <text font-size="19.7556" style="fill: #000000;text-anchor:middle;font-family:sans-serif;font-style:normal;font-weight:normal" x="922.433" y="734.52">
      <tspan x="922.433" y="734.52">Week 4 eindopdracht</tspan>
    </text>
  </g>
  <g>
    <line style="fill: none; fill-opacity:0; stroke-width: 6; stroke: #000000" x1="704.999" y1="786.617" x2="803.462" y2="760.307"/>
    <polygon style="fill: #000000" points="813.606,757.597 801.887,767.974 803.462,760.307 798.273,754.448 "/>
    <polygon style="fill: none; fill-opacity:0; stroke-width: 6; stroke: #000000" points="813.606,757.597 801.887,767.974 803.462,760.307 798.273,754.448 "/>
  </g>
  <g>
    <line style="fill: none; fill-opacity:0; stroke-width: 6; stroke: #000000" x1="706.749" y1="669.965" x2="803.619" y2="696.262"/>
    <polygon style="fill: #000000" points="813.752,699.013 798.407,702.101 803.619,696.262 802.075,688.59 "/>
    <polygon style="fill: none; fill-opacity:0; stroke-width: 6; stroke: #000000" points="813.752,699.013 798.407,702.101 803.619,696.262 802.075,688.59 "/>
  </g>
  <g>
    <line style="fill: none; fill-opacity:0; stroke-width: 10; stroke: #000000" x1="30.713" y1="584.832" x2="107.075" y2="644.649"/>
    <polygon style="fill: #000000" points="116.522,652.048 98.9927,648.48 107.075,644.649 108.859,635.884 "/>
    <polygon style="fill: none; fill-opacity:0; stroke-width: 10; stroke: #000000" points="116.522,652.048 98.9927,648.48 107.075,644.649 108.859,635.884 "/>
  </g>
  <g>
    <rect style="fill: #0000ff" x="126.328" y="864.138" width="108.036" height="104.137"/>
    <rect style="fill: none; fill-opacity:0; stroke-width: 2; stroke: #000000" x="126.328" y="864.138" width="108.036" height="104.137"/>
    <text font-size="16.9333" style="fill: #000000;text-anchor:middle;font-family:sans-serif;font-style:normal;font-weight:700" x="180.346" y="921.373">
      <tspan x="180.346" y="921.373">WEEK 5</tspan>
    </text>
  </g>
  <g>
    <line style="fill: none; fill-opacity:0; stroke-width: 10; stroke: #000000" x1="30.713" y1="687.998" x2="132.842" y2="843.757"/>
    <polygon style="fill: #000000" points="139.422,853.792 123.959,844.799 132.842,843.757 137.339,836.025 "/>
    <polygon style="fill: none; fill-opacity:0; stroke-width: 10; stroke: #000000" points="139.422,853.792 123.959,844.799 132.842,843.757 137.339,836.025 "/>
  </g>
  <g>
    <polygon style="fill: #e20045" points="1367.52,251.4 1576.27,344.319 1367.52,437.238 1158.77,344.319 "/>
    <polygon style="fill: none; fill-opacity:0; stroke-width: 2; stroke: #000000" points="1367.52,251.4 1576.27,344.319 1367.52,437.238 1158.77,344.319 "/>
    <text font-size="22.5778" style="fill: #000000;text-anchor:middle;font-family:sans-serif;font-style:normal;font-weight:normal" x="1367.52" y="351.208">
      <tspan x="1367.52" y="351.208">TENTAMEN</tspan>
    </text>
  </g>
  <g>
    <polygon style="fill: #ff1db0" points="922.433,419.875 1071.45,505.117 922.433,590.359 773.418,505.117 "/>
    <polygon style="fill: none; fill-opacity:0; stroke-width: 2; stroke: #000000" points="922.433,419.875 1071.45,505.117 922.433,590.359 773.418,505.117 "/>
    <text font-size="19.7556" style="fill: #000000;text-anchor:middle;font-family:sans-serif;font-style:normal;font-weight:normal" x="922.433" y="511.12">
      <tspan x="922.433" y="511.12">Week 3 eindopdracht</tspan>
    </text>
  </g>
  <g>
    <polygon style="fill: #ff1db0" points="922.433,185.875 1071.45,271.118 922.433,356.36 773.418,271.118 "/>
    <polygon style="fill: none; fill-opacity:0; stroke-width: 2; stroke: #000000" points="922.433,185.875 1071.45,271.118 922.433,356.36 773.418,271.118 "/>
    <text font-size="19.7556" style="fill: #000000;text-anchor:middle;font-family:sans-serif;font-style:normal;font-weight:normal" x="922.433" y="277.12">
      <tspan x="922.433" y="277.12">Week 2 eindopdracht</tspan>
    </text>
  </g>
  <g>
    <polygon style="fill: #ff1db0" points="922.433,-32.5247 1071.45,52.7176 922.433,137.96 773.418,52.7176 "/>
    <polygon style="fill: none; fill-opacity:0; stroke-width: 2; stroke: #000000" points="922.433,-32.5247 1071.45,52.7176 922.433,137.96 773.418,52.7176 "/>
    <text font-size="19.7556" style="fill: #000000;text-anchor:middle;font-family:sans-serif;font-style:normal;font-weight:normal" x="922.433" y="58.7203">
      <tspan x="922.433" y="58.7203">Week 1 eindopdracht</tspan>
    </text>
  </g>
  <g>
    <path style="fill: none; fill-opacity:0; stroke-width: 10; stroke: #000000" d="M 235.369 916.206 C 624.863,916.206 1315.59,967.89 1358.06,457.911"/>
    <polygon style="fill: #000000" points="1359.06,445.952 1365.7,462.561 1358.06,457.911 1349.76,461.233 "/>
    <polygon style="fill: none; fill-opacity:0; stroke-width: 10; stroke: #000000" points="1359.06,445.952 1365.7,462.561 1358.06,457.911 1349.76,461.233 "/>
  </g>
  <g>
    <line style="fill: none; fill-opacity:0; stroke-width: 6; stroke-dasharray: 20; stroke: #000000" x1="992.698" y1="98.7519" x2="1267.76" y2="278.963"/>
    <polygon style="fill: #000000" points="1276.55,284.717 1261,282.9 1267.76,278.963 1268.67,271.19 "/>
    <polygon style="fill: none; fill-opacity:0; stroke-width: 6; stroke: #000000" points="1276.55,284.717 1261,282.9 1267.76,278.963 1268.67,271.19 "/>
  </g>
  <g>
    <line style="fill: none; fill-opacity:0; stroke-width: 6; stroke-dasharray: 20; stroke: #000000" x1="1039.53" y1="290.376" x2="1196.56" y2="316.202"/>
    <polygon style="fill: #000000" points="1206.92,317.906 1191.97,322.542 1196.56,316.202 1194.25,308.727 "/>
    <polygon style="fill: none; fill-opacity:0; stroke-width: 6; stroke: #000000" points="1206.92,317.906 1191.97,322.542 1196.56,316.202 1194.25,308.727 "/>
  </g>
  <g>
    <line style="fill: none; fill-opacity:0; stroke-width: 6; stroke-dasharray: 20; stroke: #000000" x1="1014.82" y1="471.739" x2="1235.72" y2="391.936"/>
    <polygon style="fill: #000000" points="1245.59,388.368 1234.8,399.709 1235.72,391.936 1230.05,386.542 "/>
    <polygon style="fill: none; fill-opacity:0; stroke-width: 6; stroke: #000000" points="1245.59,388.368 1234.8,399.709 1235.72,391.936 1230.05,386.542 "/>
  </g>
  <g>
    <line style="fill: none; fill-opacity:0; stroke-width: 6; stroke-dasharray: 20; stroke: #000000" x1="982.47" y1="676.694" x2="1282.71" y2="417.529"/>
    <polygon style="fill: #000000" points="1290.66,410.668 1284.63,425.115 1282.71,417.529 1275.48,414.517 "/>
    <polygon style="fill: none; fill-opacity:0; stroke-width: 6; stroke: #000000" points="1290.66,410.668 1284.63,425.115 1282.71,417.529 1275.48,414.517 "/>
  </g>
</svg>
